<svg xmlns="http://www.w3.org/2000/svg" width="128" height="128" viewBox="0 0 128 128">
  <path fill="#ff5e54" d="M0 0h128v128H0z"/>
  <path fill="#fff" d="M106.5 95a16.46 16.46 0 0 0-13.26 6.71l-49.57-8.16 35.75-20.28a16.5 16.5 0 1 0 4.37-29.58L63.06 21.95a16.5 16.5 0 1 0-10.85 10.36l20.73 21.74A16.44 16.44 0 0 0 72 59.5v.72L30.58 83.73a16.5 16.5 0 1 0 4.18 23.56l56 9.23A16.5 16.5 0 1 0 106.5 95zM96 59.5a7.5 7.5 0 1 1-7.5-7.5 7.5 7.5 0 0 1 7.5 7.5zm-56-43a7.5 7.5 0 1 1 7.5 7.5 7.5 7.5 0 0 1-7.5-7.5zM21.5 105a7.5 7.5 0 1 1 7.5-7.5 7.5 7.5 0 0 1-7.5 7.5zm85 14a7.5 7.5 0 1 1 7.5-7.5 7.5 7.5 0 0 1-7.5 7.5z"/>
</svg>
