<?xml version="1.0" encoding="UTF-8" standalone="no"?>
<svg xmlns="http://www.w3.org/2000/svg" viewBox="0 0 303.593 303.593">
  <path fill="#F9DC3E" d="M266.797 105.17h-52.124v-3.63c0-7.47-6.057-13.527-13.527-13.527H36.796c-7.47 0-13.526 6.057-13.526 13.527v188.525c0 7.47 6.057 13.527 13.527 13.527h164.348c7.47 0 13.527-6.057 13.527-13.527V254.42c9.894-2.775 21.943-8.56 33.01-20.447 21.66-23.263 32.642-62.047 32.642-115.275 0-7.47-6.057-13.527-13.527-13.527zM94.603 212.904c2.993 2.483 3.404 6.92.92 9.914-1.393 1.676-3.398 2.54-5.42 2.54-1.586 0-3.178-.53-4.492-1.62L58.483 201.22c-1.612-1.34-2.544-3.323-2.544-5.418 0-2.093.932-4.078 2.544-5.416l27.13-22.517c2.99-2.484 7.427-2.07 9.91.92 2.485 2.992 2.074 7.43-.92 9.914l-20.6 17.1 20.6 17.1zm44.06-59.803l-25.86 89.324c-.895 3.08-3.707 5.082-6.76 5.082-.65 0-1.307-.09-1.96-.28-3.736-1.08-5.887-4.982-4.804-8.72l25.86-89.323c1.08-3.734 4.984-5.884 8.72-4.805 3.733 1.083 5.883 4.985 4.804 8.722zm40.795 48.12l-27.127 22.517c-1.314 1.09-2.91 1.622-4.49 1.622-2.022 0-4.03-.866-5.42-2.542-2.485-2.993-2.074-7.43.92-9.914l20.6-17.102-20.6-17.1c-2.994-2.482-3.405-6.92-.92-9.913 2.482-2.992 6.92-3.405 9.912-.922l27.127 22.517c1.613 1.338 2.544 3.323 2.544 5.416 0 2.097-.932 4.08-2.546 5.42zm35.214 24.43v-93.424h38.338c-2.482 62.792-22.298 85.446-38.338 93.425zM76.74 57.76c1.42.697 2.924 1.027 4.405 1.027 3.692 0 7.243-2.053 8.982-5.59l19.065-38.783c2.437-4.956.394-10.95-4.563-13.386C99.674-1.408 93.68.633 91.243 5.59L72.178 44.374c-2.436 4.956-.394 10.95 4.563 13.386zM133.31 57.76c1.418.697 2.922 1.027 4.404 1.027 3.692 0 7.242-2.053 8.98-5.59l19.07-38.782c2.436-4.957.395-10.95-4.562-13.387-4.956-2.436-10.95-.395-13.387 4.562l-19.07 38.782c-2.434 4.957-.392 10.95 4.564 13.387z"/>
</svg>
