<?xml version="1.0" encoding="UTF-8" standalone="no"?>
<svg xmlns="http://www.w3.org/2000/svg" width="44.275" height="44.275" viewBox="0 0 44.275 44.275">
  <path fill="#fff" d="M36.637 33.04c-1.717 0-3.254.776-4.285 1.993l-17.233-2.98 12.36-6.75c.9.614 1.987.975 3.157.975 3.098 0 5.617-2.52 5.617-5.62 0-3.096-2.52-5.617-5.617-5.617-.516 0-1.014.077-1.487.207l-7.6-7.393c.3-.686.467-1.44.467-2.236 0-3.098-2.52-5.618-5.62-5.618S10.78 2.52 10.78 5.617s2.52 5.618 5.617 5.618c.446 0 .88-.058 1.296-.157l7.725 7.513c-.256.642-.4 1.337-.4 2.068 0 .095.01.188.016.28l-14.496 7.918c-.848-.514-1.838-.815-2.9-.815-3.098 0-5.618 2.522-5.618 5.62 0 3.096 2.52 5.616 5.618 5.616 1.996 0 3.748-1.05 4.745-2.623l18.78 3.248c.567 2.5 2.805 4.376 5.475 4.376 3.1 0 5.62-2.52 5.62-5.617-.002-3.1-2.525-5.62-5.62-5.62zm-3.383-12.38c0 1.444-1.174 2.618-2.617 2.618s-2.618-1.174-2.618-2.62c0-1.443 1.174-2.617 2.617-2.617s2.617 1.175 2.617 2.62zM13.78 5.616C13.78 4.173 14.953 3 16.396 3s2.618 1.173 2.618 2.617-1.175 2.618-2.618 2.618S13.78 7.06 13.78 5.617zm-6.144 30.66c-1.443 0-2.618-1.174-2.618-2.62 0-1.442 1.175-2.616 2.618-2.616 1.443 0 2.618 1.175 2.618 2.618 0 1.446-1.174 2.62-2.618 2.62zm29 5c-1.442 0-2.617-1.174-2.617-2.62 0-1.442 1.174-2.616 2.617-2.616s2.617 1.175 2.617 2.618c0 1.446-1.174 2.62-2.617 2.62z"/>
</svg>
